<svg xmlns="http://www.w3.org/2000/svg" viewBox="0 0 64 64">
  <defs>
    <linearGradient id="liquid" x1="14" y1="54" x2="50" y2="34" gradientUnits="userSpaceOnUse">
      <stop stop-color="#8250df" />
      <stop offset="0.52" stop-color="#1f6feb" />
      <stop offset="1" stop-color="#39c5cf" />
    </linearGradient>
    <clipPath id="flask">
      <path d="M27 10v14L14.7 47.2A6.6 6.6 0 0 0 20.5 57h23a6.6 6.6 0 0 0 5.8-9.8L37 24V10z" />
    </clipPath>
  </defs>

  <rect x="2" y="2" width="60" height="60" rx="14" fill="#0d1117" />
  <rect x="3.5" y="3.5" width="57" height="57" rx="12.5" fill="none" stroke="#30363d" stroke-width="3" />

  <path d="M27 10v14L14.7 47.2A6.6 6.6 0 0 0 20.5 57h23a6.6 6.6 0 0 0 5.8-9.8L37 24V10z" fill="#161b22" />
  <path
    d="M10 39c8-6 13 3 21-1s13 2 23-4v27H10z"
    fill="url(#liquid)"
    clip-path="url(#flask)"
  />

  <g fill="none" stroke="#f0f6fc" stroke-linecap="round" stroke-linejoin="round">
    <path d="M23 10h18" stroke-width="4" />
    <path d="M27 10v14L14.7 47.2A6.6 6.6 0 0 0 20.5 57h23a6.6 6.6 0 0 0 5.8-9.8L37 24V10" stroke-width="4" />
    <path d="m25.5 49 6.5-15 6.5 15M28.2 43h7.6" stroke-width="3.5" />
  </g>

  <circle cx="22" cy="34" r="2" fill="#79c0ff" />
  <circle cx="42" cy="29" r="2.4" fill="#56d4dd" />
</svg>
